<?xml version="1.0" standalone="no"?>
<!DOCTYPE svg PUBLIC "-//W3C//DTD SVG 20010904//EN"
 "http://www.w3.org/TR/2001/REC-SVG-20010904/DTD/svg10.dtd">
<svg version="1.0" xmlns="http://www.w3.org/2000/svg"
 width="1024.000000pt" height="1024.000000pt" viewBox="0 0 1024.000000 1024.000000"
 preserveAspectRatio="xMidYMid meet">
<metadata>
Created by potrace 1.11, written by Peter Selinger 2001-2013
</metadata>
<g transform="translate(0.000000,1024.000000) scale(0.100000,-0.100000)"
fill="#000000" stroke="none">
<path d="M7215 9919 c-173 -25 -375 -123 -503 -242 -30 -29 -184 -209 -341
-402 -487 -595 -1155 -1417 -1200 -1477 -23 -31 -49 -59 -57 -62 -19 -7 34
-71 -510 609 -1106 1383 -1078 1349 -1198 1429 -151 100 -270 136 -470 143
-162 6 -258 -7 -366 -48 -181 -69 -329 -195 -413 -351 -85 -157 -76 89 -93
-2528 -8 -1284 -13 -2452 -11 -2595 l3 -260 37 -125 c58 -193 150 -359 300
-537 86 -103 852 -1045 1785 -2194 364 -449 692 -844 728 -879 138 -128 213
-132 362 -17 74 56 137 130 639 752 307 380 909 1123 1337 1652 428 529 789
979 802 1000 54 88 85 168 98 257 20 130 26 815 27 3226 l0 2045 -25 88 c-36
128 -88 209 -189 296 -158 136 -242 181 -390 212 -98 20 -245 23 -352 8z"/>
</g>
</svg>
